<svg width="25" height="25" viewBox="0 0 25 25" fill="none" xmlns="http://www.w3.org/2000/svg">
<path d="M11.4311 13.0626C11.409 13.3359 11.3079 13.5968 11.1399 13.8136C10.972 14.0303 10.7447 14.1934 10.4856 14.2831C10.2265 14.3728 9.94693 14.3851 9.68097 14.3185C9.41502 14.252 9.17419 14.1094 8.98789 13.9083C8.80159 13.7071 8.67788 13.4561 8.63186 13.1859C8.58583 12.9156 8.61948 12.6378 8.72871 12.3863C8.83793 12.1348 9.018 11.9206 9.24694 11.7698C9.47587 11.6189 9.74377 11.538 10.0179 11.5369C10.4076 11.5519 10.7755 11.721 11.0405 12.0071C11.3055 12.2933 11.446 12.6729 11.4311 13.0626ZM16.4586 13.0626C16.4365 13.3364 16.335 13.5978 16.1665 13.8148C15.998 14.0318 15.7699 14.1949 15.5101 14.2841C15.2504 14.3734 14.9702 14.385 14.7039 14.3174C14.4377 14.2498 14.1969 14.106 14.0112 13.9037C13.8254 13.7013 13.7027 13.4492 13.6581 13.1781C13.6135 12.9071 13.6489 12.6289 13.76 12.3777C13.8711 12.1265 14.0531 11.9131 14.2836 11.7638C14.5142 11.6144 14.7833 11.5356 15.0579 11.5369C15.4456 11.5547 15.8104 11.7252 16.0728 12.011C16.3352 12.2969 16.4739 12.6749 16.4586 13.0626Z" fill="white"/>
<path d="M21.3357 3.65801C19.2902 1.61397 16.5992 0.342362 13.7213 0.0598259C10.8434 -0.222711 7.95653 0.501305 5.55256 2.10852C3.1486 3.71574 1.37623 6.10673 0.537428 8.87415C-0.301377 11.6416 -0.154731 14.6142 0.952381 17.2856C2.05949 19.9571 4.05858 22.162 6.60907 23.5248C9.15955 24.8876 12.1037 25.324 14.9398 24.7596C17.7759 24.1951 20.3286 22.6649 22.163 20.4294C23.9974 18.194 25 15.3917 25 12.4999C25.0018 10.8574 24.6789 9.23071 24.0501 7.71333C23.4213 6.19595 22.4988 4.81778 21.3357 3.65801ZM16.4332 17.9776C16.4332 17.9776 15.933 17.3773 15.5203 16.8521C16.5155 16.6205 17.397 16.0446 18.009 15.2263C17.5157 15.5519 16.9871 15.8204 16.4332 16.0267C15.7909 16.3014 15.1197 16.5027 14.4322 16.627C13.2486 16.8393 12.0359 16.8309 10.8554 16.602C10.1628 16.4715 9.48432 16.2747 8.82941 16.0142C8.48652 15.8811 8.15236 15.7265 7.82891 15.5514C7.77889 15.5139 7.74137 15.5014 7.70385 15.4764C7.68143 15.4667 7.6604 15.4541 7.64132 15.4389C7.42871 15.3138 7.29115 15.2263 7.26613 15.2138C7.85574 16.0132 8.70436 16.5834 9.66733 16.8271C9.25463 17.3523 8.75438 17.9776 8.75438 17.9776C7.93367 17.9985 7.12037 17.8178 6.38564 17.4516C5.6509 17.0853 5.01713 16.5445 4.53977 15.8766C4.58504 13.0801 5.26498 10.3304 6.52826 7.8351C7.64024 6.96362 8.99428 6.45694 10.4052 6.38437L10.5428 6.54695C9.22132 6.87711 7.98784 7.49172 6.92846 8.34785C6.991 8.32284 7.27864 8.17276 7.72886 7.96016C8.72042 7.51092 9.77476 7.2157 10.8554 7.08472C10.9339 7.07021 11.0133 7.06185 11.093 7.05971C12.0182 6.93792 12.9548 6.92952 13.8819 7.0347C15.3335 7.20153 16.7392 7.64743 18.0215 8.34785C17.0136 7.53485 15.8462 6.94262 14.5948 6.60948L14.7949 6.38437C16.2058 6.45694 17.5599 6.96362 18.6718 7.8351C19.9279 10.3325 20.6034 13.0815 20.6478 15.8766C20.1705 16.5445 19.5367 17.0853 18.802 17.4516C18.0672 17.8178 17.2539 17.9985 16.4332 17.9776Z" fill="white"/>
</svg>
