<svg width="25" height="25" viewBox="0 0 25 25" fill="none" xmlns="http://www.w3.org/2000/svg">
<path d="M12.5 0C5.5971 0 0 5.5971 0 12.5C0 19.4029 5.5971 25 12.5 25C19.4029 25 25 19.4029 25 12.5C25 5.5971 19.4029 0 12.5 0ZM19.6429 7.07868L18.5045 8.16964C18.404 8.24498 18.3566 8.36775 18.3761 8.48772V16.5151C18.3566 16.6378 18.404 16.7606 18.5045 16.8331L19.6205 17.9241V18.1669H14.0179V17.9353L15.1702 16.8164C15.2846 16.702 15.2846 16.6685 15.2846 16.4983V10.0028L12.0759 18.139H11.6434L7.91016 10.0028V15.4576C7.87667 15.6864 7.95759 15.918 8.11942 16.0826L9.62053 17.899V18.1417H5.35714V17.899L6.85826 16.0826C6.93735 16.0009 6.99621 15.9018 7.03012 15.7933C7.06404 15.6847 7.07207 15.5698 7.05357 15.4576V9.15179C7.0731 8.976 7.00614 8.8058 6.87221 8.68583L5.5385 7.07868V6.83594H9.68192L12.8795 13.8532L15.6948 6.84152H19.6429V7.07868Z" fill="white"/>
</svg>
