<svg width="25" height="25" viewBox="0 0 25 25" fill="none" xmlns="http://www.w3.org/2000/svg">
<path d="M16.5875 18.2339L18.6384 8.56607C18.8196 7.71518 18.3312 7.38036 17.7732 7.58929L5.71964 12.2348C4.89643 12.5554 4.91071 13.0161 5.58036 13.225L8.66339 14.1875L15.8205 9.68125C16.1554 9.45804 16.4625 9.58393 16.2116 9.80714L10.4223 15.0384L10.1991 18.2196C10.5196 18.2196 10.6598 18.0804 10.8268 17.9125L12.333 16.4616L15.458 18.7634C16.0304 19.0839 16.4348 18.917 16.5884 18.233L16.5875 18.2339ZM25 12.5C25 19.4054 19.4054 25 12.5 25C5.59464 25 0 19.4054 0 12.5C0 5.59464 5.59464 0 12.5 0C19.4054 0 25 5.59464 25 12.5Z" fill="white"/>
</svg>
