<svg width="25" height="25" viewBox="0 0 25 25" fill="none" xmlns="http://www.w3.org/2000/svg">
<path d="M12.5 0C5.59595 0 0 5.59595 0 12.5C0 19.4041 5.59595 25 12.5 25C19.4041 25 25 19.4041 25 12.5C25 5.59595 19.4041 0 12.5 0ZM18.8577 10.1045C18.7871 15.4399 15.3748 19.0947 10.282 19.3245C8.18237 19.4204 6.65991 18.7419 5.33545 17.9006C6.8877 18.1484 8.81274 17.5278 9.84229 16.6467C8.32056 16.4983 7.41968 15.7241 6.99805 14.4775C7.43648 14.5494 7.8845 14.5383 8.31885 14.4448C6.94556 13.9854 5.96509 13.137 5.91431 11.3584C6.2998 11.5339 6.70142 11.6985 7.23511 11.731C6.20752 11.1467 5.44751 9.01001 6.31787 7.59692C7.84302 9.2688 9.67749 10.6328 12.6899 10.8174C11.9331 7.58423 16.218 5.83105 18.0122 8.00415C18.769 7.85767 19.3872 7.56982 19.9807 7.25684C19.7366 8.00757 19.2659 8.53247 18.6924 8.95215C19.322 8.86694 19.8794 8.71338 20.3552 8.47803C20.0591 9.09131 19.4131 9.64136 18.8577 10.1045Z" fill="white"/>
</svg>
