<svg width="25" height="25" viewBox="0 0 25 25" fill="none" xmlns="http://www.w3.org/2000/svg">
<path d="M15.2772 16.283C15.4029 16.4087 15.4029 16.6043 15.2772 16.716C14.4809 17.5123 12.947 17.5821 12.5 17.5821C12.053 17.5821 10.5191 17.5123 9.72284 16.716C9.59712 16.6043 9.59712 16.4087 9.72284 16.283C9.84019 16.1712 10.0246 16.1712 10.1419 16.283C10.6448 16.7998 11.7317 16.9675 12.5 16.9675C13.2683 16.9675 14.3412 16.7998 14.8581 16.283C14.9782 16.1712 15.1598 16.1712 15.2772 16.283ZM10.9941 13.7573C10.9941 14.4418 10.4353 15.0006 9.75078 15.0006C9.41831 15.0034 9.0998 14.872 8.86511 14.6401C8.63042 14.4082 8.49631 14.0897 8.49631 13.7601C8.49352 13.4276 8.62763 13.1063 8.86232 12.8716C9.097 12.6369 9.41831 12.5028 9.75078 12.5056C10.4353 12.5 10.9941 13.0588 10.9941 13.7573ZM16.5037 13.7573C16.5037 14.4418 15.9449 15.0006 15.2492 15.0006C14.5647 14.9978 14.0087 14.4446 14.0059 13.7573C14.0059 13.0588 14.5647 12.5028 15.2492 12.5028C15.5817 12.5 15.903 12.6341 16.1377 12.8688C16.3752 13.1035 16.5065 13.422 16.5037 13.7573ZM20.0073 12.0837C20.0045 11.6423 19.8285 11.2176 19.5127 10.9075C19.1998 10.5973 18.7751 10.4213 18.3309 10.4241C17.8559 10.4241 17.4369 10.6197 17.1295 10.927C15.998 10.1447 14.4781 9.64461 12.7906 9.58873L13.6679 5.64092L16.459 6.26956C16.459 6.95407 17.0178 7.51285 17.7023 7.51285C18.4008 7.51285 18.9567 6.9401 18.9567 6.25838C18.9567 5.57667 18.398 5.00391 17.7023 5.00391C17.2301 5.0095 16.7998 5.27772 16.5875 5.70239L13.5058 5.0095C13.3521 4.96759 13.1985 5.07935 13.1566 5.23301L12.1927 9.58594C10.5191 9.65579 9.01039 10.1587 7.88165 10.9382C7.56594 10.6085 7.12729 10.4213 6.66909 10.4213C6.22765 10.4185 5.80297 10.5945 5.48726 10.9047C5.17434 11.2148 4.99553 11.6395 4.99274 12.0809C4.99274 12.7515 5.38388 13.3074 5.93987 13.5868C5.884 13.8439 5.85606 14.1065 5.85606 14.3691C5.85606 17.0206 8.84276 19.1691 12.5112 19.1691C16.1936 19.1691 19.1803 17.0206 19.1803 14.3691C19.1803 14.1037 19.1523 13.8243 19.0825 13.5729C19.6496 13.2907 20.0045 12.7123 20.0073 12.0837ZM25 12.5C25 19.4066 19.4066 25 12.5 25C5.59343 25 0 19.4066 0 12.5C0 5.59343 5.59622 0 12.5 0C19.4038 0 25 5.59622 25 12.5Z" fill="white"/>
</svg>
