<svg width="25" height="25" viewBox="0 0 25 25" fill="none" xmlns="http://www.w3.org/2000/svg">
<path d="M14.1496 12.4899C13.8646 12.4899 13.5795 12.7546 13.5795 13.0804C13.5795 13.3451 13.8644 13.6099 14.1496 13.6099C14.5774 13.6099 14.8828 13.3451 14.8828 13.0804C14.8828 12.7546 14.5774 12.4899 14.1496 12.4899ZM12.276 9.74039C12.724 9.74039 13.0092 9.45536 13.0092 9.02757C13.0092 8.57952 12.7241 8.3148 12.276 8.3148C11.8483 8.3148 11.441 8.57955 11.441 9.02757C11.4409 9.45541 11.8483 9.74039 12.276 9.74039ZM12.5 0C5.59639 0 0 5.59639 0 12.5C0 19.4036 5.59639 25 12.5 25C19.4036 25 25 19.4036 25 12.5C25 5.59639 19.4036 0 12.5 0ZM10.1376 15.6669C9.38397 15.6669 8.8341 15.5448 8.1213 15.3411L6.06436 16.3798L6.65508 14.6282C5.20906 13.61 4.35362 12.327 4.35362 10.7588C4.35362 7.989 6.96048 5.87092 10.1376 5.87092C12.9481 5.87092 15.4531 7.54098 15.9419 9.90351C15.7383 9.86269 15.5549 9.84241 15.392 9.84241C12.6222 9.84241 10.4839 11.9197 10.4839 14.4247C10.4839 14.8523 10.545 15.2393 10.6468 15.6467C10.4839 15.6669 10.3005 15.6669 10.1376 15.6669ZM18.6302 17.6627L19.0375 19.1292L17.4897 18.2535C16.8991 18.3756 16.3288 18.5589 15.7383 18.5589C13.0092 18.5589 10.8504 16.6853 10.8504 14.3636C10.8504 12.0419 13.0092 10.1682 15.7383 10.1682C18.3247 10.1682 20.6464 12.0419 20.6464 14.3636C20.6464 15.6669 19.7707 16.8277 18.6302 17.6627V17.6627ZM8.24352 8.3148C7.81584 8.3148 7.36782 8.57955 7.36782 9.02757C7.36782 9.45538 7.81584 9.74053 8.24352 9.74053C8.65091 9.74053 8.97674 9.45538 8.97674 9.02757C8.97674 8.57955 8.65091 8.3148 8.24352 8.3148ZM17.3472 12.4899C17.0416 12.4899 16.7769 12.7546 16.7769 13.0804C16.7769 13.3451 17.0416 13.6099 17.3472 13.6099C17.7544 13.6099 18.0599 13.3451 18.0599 13.0804C18.0599 12.7546 17.7544 12.4899 17.3472 12.4899Z" fill="white"/>
</svg>
