<svg width="14" height="16" viewBox="0 0 14 16" fill="none" xmlns="http://www.w3.org/2000/svg">
<path d="M2.97872 3.19266C2.89681 3.19266 2.82979 3.25872 2.82979 3.33945V4.22018C2.82979 4.30092 2.89681 4.36697 2.97872 4.36697H10.1277C10.2096 4.36697 10.2766 4.30092 10.2766 4.22018V3.33945C10.2766 3.25872 10.2096 3.19266 10.1277 3.19266H2.97872ZM6.40426 5.83486H2.97872C2.89681 5.83486 2.82979 5.90092 2.82979 5.98165V6.86238C2.82979 6.94312 2.89681 7.00917 2.97872 7.00917H6.40426C6.48617 7.00917 6.55319 6.94312 6.55319 6.86238V5.98165C6.55319 5.90092 6.48617 5.83486 6.40426 5.83486ZM5.51064 14.2385H1.34043V1.3211H11.766V7.19266C11.766 7.27339 11.833 7.33945 11.9149 7.33945H12.9574C13.0394 7.33945 13.1064 7.27339 13.1064 7.19266V0.587156C13.1064 0.262385 12.8402 0 12.5106 0H0.595745C0.266223 0 0 0.262385 0 0.587156V14.9725C0 15.2972 0.266223 15.5596 0.595745 15.5596H5.51064C5.59255 15.5596 5.65957 15.4936 5.65957 15.4128V14.3853C5.65957 14.3046 5.59255 14.2385 5.51064 14.2385ZM13.7021 12.6239H11.0213V11.9523C11.8832 11.6991 12.5106 10.9138 12.5106 9.98165C12.5106 8.84587 11.5779 7.92661 10.4255 7.92661C9.27314 7.92661 8.34043 8.84587 8.34043 9.98165C8.34043 10.9119 8.96782 11.6991 9.82979 11.9523V12.6239H7.14894C6.98511 12.6239 6.85106 12.756 6.85106 12.9174V15.7064C6.85106 15.8679 6.98511 16 7.14894 16H13.7021C13.866 16 14 15.8679 14 15.7064V12.9174C14 12.756 13.866 12.6239 13.7021 12.6239ZM9.49468 9.98165C9.49468 9.47523 9.9117 9.06422 10.4255 9.06422C10.9394 9.06422 11.3564 9.47523 11.3564 9.98165C11.3564 10.4881 10.9394 10.8991 10.4255 10.8991C9.9117 10.8991 9.49468 10.4881 9.49468 9.98165ZM12.8457 14.8624H8.00532V13.7615H12.8457V14.8624Z" fill="white"/>
</svg>
