<svg width="60" height="60" viewBox="0 0 60 60" fill="none" xmlns="http://www.w3.org/2000/svg">
<circle cx="30" cy="30" r="30" fill="white"/>
<path fill-rule="evenodd" clip-rule="evenodd" d="M48.6014 41.7261C48.4681 49.4841 40.2559 54.3907 33.4063 50.8048L10.5899 38.8601C2.99088 34.882 3.17976 23.8945 10.9109 20.1819L34.1243 9.03447C41.0931 5.68798 49.1317 10.876 48.9984 18.634L48.9854 21.1276C48.9855 21.1474 48.9855 21.1673 48.9853 21.1872C48.9852 21.1932 48.9851 21.1992 48.985 21.2052C48.9849 21.2112 48.9848 21.2173 48.9846 21.2233C48.9456 22.94 47.5474 24.305 45.8377 24.2754C44.1279 24.2458 42.7953 22.8335 42.8154 21.1164C42.8154 21.1104 42.8155 21.1044 42.8156 21.0984L42.8598 18.5277C42.9144 15.3525 39.6243 13.2291 36.7721 14.5988L13.5587 25.7462C10.3945 27.2657 10.3172 31.7627 13.4273 33.3909L36.2438 45.3356C39.0472 46.8032 42.4083 44.795 42.4629 41.6198L42.507 39.0491C42.5071 39.0431 42.5073 39.0371 42.5074 39.0311C42.5464 37.3143 43.9268 35.949 45.6365 35.9786C47.3462 36.0082 48.6966 37.4209 48.6767 39.1379C48.6766 39.144 48.6765 39.15 48.6764 39.156C48.6763 39.162 48.6762 39.168 48.6761 39.174C48.6756 39.1939 48.675 39.2137 48.6742 39.2335L48.6014 41.7261Z" fill="url(#paint0_linear)"/>
<path d="M29.2709 26.9855V33.2851C29.2709 33.3428 29.3033 33.3789 29.368 33.3934C29.6484 33.4439 29.9647 33.4691 30.317 33.4691C31.3595 33.4691 32.1216 33.1985 32.6033 32.6573C33.0922 32.1161 33.3366 31.2394 33.3366 30.0271C33.3366 28.923 33.0886 28.1112 32.5925 27.5916C32.1036 27.0649 31.3451 26.8015 30.317 26.8015C29.9647 26.8015 29.6484 26.8267 29.368 26.8772C29.3033 26.8917 29.2709 26.9278 29.2709 26.9855ZM29.0121 34.1186C28.8396 34.0969 28.6958 34.0212 28.5807 33.8913C28.4657 33.7542 28.4082 33.5954 28.4082 33.415V26.8556C28.4082 26.6752 28.4621 26.5201 28.5699 26.3902C28.685 26.2531 28.8324 26.1737 29.0121 26.152C29.4075 26.1015 29.8425 26.0763 30.317 26.0763C32.8765 26.0763 34.1562 27.3932 34.1562 30.0271C34.1562 32.8052 32.8765 34.1943 30.317 34.1943C29.8425 34.1943 29.4075 34.1691 29.0121 34.1186Z" fill="url(#paint1_linear)"/>
<path d="M36.2398 33.9562C36.1607 34.0428 36.06 34.0861 35.9378 34.0861C35.8156 34.0861 35.7114 34.0428 35.6251 33.9562C35.546 33.8696 35.5065 33.7686 35.5065 33.6531V26.6175C35.5065 26.502 35.546 26.401 35.6251 26.3144C35.7114 26.2278 35.8156 26.1845 35.9378 26.1845C36.06 26.1845 36.1607 26.2278 36.2398 26.3144C36.3261 26.401 36.3692 26.502 36.3692 26.6175V29.3993C36.3692 29.457 36.398 29.4859 36.4555 29.4859H40.0143C40.0718 29.4859 40.1006 29.457 40.1006 29.3993V26.6175C40.1006 26.502 40.1401 26.401 40.2192 26.3144C40.3055 26.2278 40.4097 26.1845 40.5319 26.1845C40.6542 26.1845 40.7548 26.2278 40.8339 26.3144C40.9202 26.401 40.9633 26.502 40.9633 26.6175V33.6531C40.9633 33.7686 40.9202 33.8696 40.8339 33.9562C40.7548 34.0428 40.6542 34.0861 40.5319 34.0861C40.4097 34.0861 40.3055 34.0428 40.2192 33.9562C40.1401 33.8696 40.1006 33.7686 40.1006 33.6531V30.276C40.1006 30.2111 40.0718 30.1786 40.0143 30.1786H36.4555C36.398 30.1786 36.3692 30.2111 36.3692 30.276V33.6531C36.3692 33.7686 36.3261 33.8696 36.2398 33.9562Z" fill="url(#paint2_linear)"/>
<path d="M42.8913 26.9205C42.7907 26.9205 42.7044 26.8845 42.6325 26.8123C42.5606 26.7401 42.5247 26.6535 42.5247 26.5525C42.5247 26.4515 42.5606 26.3649 42.6325 26.2927C42.7044 26.2206 42.7907 26.1845 42.8913 26.1845H47.7011C47.8018 26.1845 47.8881 26.2206 47.96 26.2927C48.0319 26.3649 48.0678 26.4515 48.0678 26.5525C48.0678 26.6535 48.0319 26.7401 47.96 26.8123C47.8881 26.8845 47.8018 26.9205 47.7011 26.9205H45.8247C45.76 26.9205 45.7276 26.953 45.7276 27.018V33.6531C45.7276 33.7686 45.6845 33.8696 45.5982 33.9562C45.5191 34.0428 45.4185 34.0861 45.2962 34.0861C45.174 34.0861 45.0698 34.0428 44.9835 33.9562C44.9044 33.8696 44.8649 33.7686 44.8649 33.6531V27.018C44.8649 26.953 44.8325 26.9205 44.7678 26.9205H42.8913Z" fill="url(#paint3_linear)"/>
<path fill-rule="evenodd" clip-rule="evenodd" d="M28.5699 26.3902C28.685 26.2531 28.8324 26.1737 29.0121 26.152C29.4075 26.1015 29.8425 26.0763 30.317 26.0763C32.8765 26.0763 34.1562 27.3932 34.1562 30.0271C34.1562 32.8052 32.8765 34.1943 30.317 34.1943C29.8425 34.1943 29.4075 34.1691 29.0121 34.1186C28.8396 34.0969 28.6958 34.0212 28.5807 33.8913C28.4657 33.7542 28.4082 33.5954 28.4082 33.415V26.8556C28.4082 26.6752 28.4621 26.5201 28.5699 26.3902ZM32.5925 27.5916C32.1036 27.0649 31.3451 26.8015 30.317 26.8015C29.9647 26.8015 29.6484 26.8267 29.368 26.8772C29.3033 26.8917 29.2709 26.9278 29.2709 26.9855V33.2851C29.2709 33.3428 29.3033 33.3789 29.368 33.3934C29.6484 33.4439 29.9647 33.4691 30.317 33.4691C31.3595 33.4691 32.1216 33.1985 32.6033 32.6573C33.0922 32.1161 33.3366 31.2394 33.3366 30.0271C33.3366 28.923 33.0886 28.1112 32.5925 27.5916ZM29.7203 32.9883C29.9014 33.0079 30.1001 33.0181 30.317 33.0181C31.2893 33.0181 31.9038 32.7662 32.2682 32.3569L32.2693 32.3556L32.2704 32.3544C32.6483 31.936 32.8873 31.1964 32.8873 30.0271C32.8873 28.9788 32.6502 28.3039 32.2681 27.9037L32.2659 27.9014L32.2637 27.899C31.8912 27.4976 31.2754 27.2525 30.317 27.2525C30.1001 27.2525 29.9014 27.2627 29.7203 27.2823V32.9883ZM28.9568 25.7044C29.3738 25.6513 29.8275 25.6253 30.317 25.6253C31.6689 25.6253 32.7647 25.9737 33.5181 26.7491C34.2695 27.5223 34.6056 28.6434 34.6056 30.0271C34.6056 31.4773 34.2723 32.649 33.5263 33.4587C32.7742 34.2751 31.6754 34.6453 30.317 34.6453C29.827 34.6453 29.3728 34.6193 28.9554 34.566C28.6756 34.5306 28.4325 34.4027 28.2449 34.1909L28.2409 34.1864L28.237 34.1818C28.0533 33.9628 27.9588 33.701 27.9588 33.415V26.8556C27.9588 26.5773 28.0449 26.318 28.2248 26.1014L28.2255 26.1005L28.2262 26.0997C28.4154 25.8742 28.6665 25.7398 28.9568 25.7044ZM35.6251 33.9562C35.7114 34.0428 35.8156 34.0861 35.9378 34.0861C36.06 34.0861 36.1607 34.0428 36.2398 33.9562C36.3261 33.8696 36.3692 33.7686 36.3692 33.6531V30.276C36.3692 30.2111 36.398 30.1786 36.4555 30.1786H40.0143C40.0718 30.1786 40.1006 30.2111 40.1006 30.276V33.6531C40.1006 33.7686 40.1401 33.8696 40.2192 33.9562C40.3055 34.0428 40.4097 34.0861 40.5319 34.0861C40.6542 34.0861 40.7548 34.0428 40.8339 33.9562C40.9202 33.8696 40.9633 33.7686 40.9633 33.6531V26.6175C40.9633 26.502 40.9202 26.401 40.8339 26.3144C40.7548 26.2278 40.6542 26.1845 40.5319 26.1845C40.4097 26.1845 40.3055 26.2278 40.2192 26.3144C40.1401 26.401 40.1006 26.502 40.1006 26.6175V29.3993C40.1006 29.457 40.0718 29.4859 40.0143 29.4859H36.4555C36.398 29.4859 36.3692 29.457 36.3692 29.3993V26.6175C36.3692 26.502 36.3261 26.401 36.2398 26.3144C36.1607 26.2278 36.06 26.1845 35.9378 26.1845C35.8156 26.1845 35.7114 26.2278 35.6251 26.3144C35.546 26.401 35.5065 26.502 35.5065 26.6175V33.6531C35.5065 33.7686 35.546 33.8696 35.6251 33.9562ZM36.5643 26.0023C36.3967 25.8229 36.1765 25.7335 35.9378 25.7335C35.6967 25.7335 35.4781 25.8241 35.3073 25.9955L35.3004 26.0024L35.2938 26.0096C35.1403 26.1778 35.0571 26.387 35.0571 26.6175V33.6531C35.0571 33.8836 35.1403 34.0928 35.2938 34.261L35.3004 34.2682L35.3073 34.2751C35.4781 34.4465 35.6967 34.5371 35.9378 34.5371C36.1765 34.5371 36.3967 34.4478 36.5643 34.2683C36.725 34.1038 36.8185 33.8927 36.8185 33.6531V30.6296H39.6512V33.6531C39.6512 33.8836 39.7344 34.0928 39.888 34.261L39.8946 34.2682L39.9015 34.2751C40.0722 34.4465 40.2908 34.5371 40.5319 34.5371C40.7706 34.5371 40.9908 34.4478 41.1584 34.2683C41.3191 34.1038 41.4127 33.8927 41.4127 33.6531V26.6175C41.4127 26.3779 41.3191 26.1668 41.1584 26.0023C40.9908 25.8229 40.7706 25.7335 40.5319 25.7335C40.2908 25.7335 40.0722 25.8241 39.9015 25.9955L39.8946 26.0024L39.888 26.0096C39.7344 26.1778 39.6512 26.387 39.6512 26.6175V29.0349H36.8185V26.6175C36.8185 26.3779 36.725 26.1668 36.5643 26.0023ZM44.9835 33.9562C45.0698 34.0428 45.174 34.0861 45.2962 34.0861C45.4185 34.0861 45.5191 34.0428 45.5982 33.9562C45.6845 33.8696 45.7276 33.7686 45.7276 33.6531V27.018C45.7276 26.953 45.76 26.9205 45.8247 26.9205H47.7011C47.8018 26.9205 47.8881 26.8845 47.96 26.8123C48.0319 26.7401 48.0678 26.6535 48.0678 26.5525C48.0678 26.4515 48.0319 26.3649 47.96 26.2927C47.8881 26.2206 47.8018 26.1845 47.7011 26.1845H42.8913C42.7907 26.1845 42.7044 26.2206 42.6325 26.2927C42.5606 26.3649 42.5247 26.4515 42.5247 26.5525C42.5247 26.6535 42.5606 26.7401 42.6325 26.8123C42.7044 26.8845 42.7907 26.9205 42.8913 26.9205H44.7678C44.8325 26.9205 44.8649 26.953 44.8649 27.018V33.6531C44.8649 33.7686 44.9044 33.8696 44.9835 33.9562ZM44.6589 34.2682L44.6523 34.261C44.4987 34.0928 44.4155 33.8836 44.4155 33.6531V27.3715H42.8913C42.6702 27.3715 42.47 27.287 42.3148 27.1312C42.1596 26.9754 42.0753 26.7745 42.0753 26.5525C42.0753 26.3305 42.1596 26.1296 42.3148 25.9738C42.47 25.8181 42.6702 25.7335 42.8913 25.7335H47.7011C47.9223 25.7335 48.1225 25.8181 48.2777 25.9738C48.4329 26.1296 48.5172 26.3305 48.5172 26.5525C48.5172 26.7745 48.4329 26.9754 48.2777 27.1312C48.1225 27.287 47.9223 27.3715 47.7011 27.3715H46.177V33.6531C46.177 33.8927 46.0834 34.1038 45.9227 34.2683C45.7551 34.4478 45.5349 34.5371 45.2962 34.5371C45.0551 34.5371 44.8365 34.4465 44.6658 34.2751L44.6589 34.2682Z" fill="url(#paint4_linear)"/>
<defs>
<linearGradient id="paint0_linear" x1="44.201" y1="8" x2="26.8929" y2="47.9848" gradientUnits="userSpaceOnUse">
<stop stop-color="#151863"/>
<stop offset="1" stop-color="#69D3EC"/>
</linearGradient>
<linearGradient id="paint1_linear" x1="44.201" y1="8" x2="26.8929" y2="47.9848" gradientUnits="userSpaceOnUse">
<stop stop-color="#151863"/>
<stop offset="1" stop-color="#69D3EC"/>
</linearGradient>
<linearGradient id="paint2_linear" x1="44.201" y1="8" x2="26.8929" y2="47.9848" gradientUnits="userSpaceOnUse">
<stop stop-color="#151863"/>
<stop offset="1" stop-color="#69D3EC"/>
</linearGradient>
<linearGradient id="paint3_linear" x1="44.201" y1="8" x2="26.8929" y2="47.9848" gradientUnits="userSpaceOnUse">
<stop stop-color="#151863"/>
<stop offset="1" stop-color="#69D3EC"/>
</linearGradient>
<linearGradient id="paint4_linear" x1="44.201" y1="8" x2="26.8929" y2="47.9848" gradientUnits="userSpaceOnUse">
<stop stop-color="#151863"/>
<stop offset="1" stop-color="#69D3EC"/>
</linearGradient>
</defs>
</svg>
