<svg width="124" height="30" viewBox="0 0 124 30" fill="none" xmlns="http://www.w3.org/2000/svg">
<path d="M0 0V19.6392H7.5V7.8866H15.4639C18.2474 8.04124 21.9897 10.732 22.1134 15.3093C22.2371 19.8866 17.732 21.933 15.4639 22.5H10.5155V30H17.9381C21.8557 29.3299 30 25.3608 30 15.3093C30 4.48454 22.5773 0 15.4639 0H0Z" fill="#413E4F"/>
<circle cx="3.75" cy="26.25" r="3.75" fill="#18B3B5"/>
<path d="M36 29.6964V12.2817H42.0537C48.2772 12.2817 51.389 15.111 51.389 20.7698C51.389 23.4606 50.5177 25.6229 48.7751 27.2568C47.0325 28.8832 44.7845 29.6964 42.0311 29.6964H36ZM39.7341 15.3172V26.6609H41.7709C43.5436 26.6609 44.9354 26.1363 45.9463 25.087C46.9571 24.0377 47.4625 22.6174 47.4625 20.826C47.4625 19.0947 46.9345 17.7456 45.8784 16.7787C44.8223 15.8043 43.4493 15.3172 41.7595 15.3172H39.7341Z" fill="#413E4F"/>
<path d="M65.1033 24.5024H56.8656C56.9939 26.4286 58.1631 27.3917 60.3734 27.3917C61.7539 27.3917 62.9722 27.0544 64.0283 26.3799V29.0444C62.8892 29.6815 61.3956 30 59.5474 30C57.5559 30 56.0057 29.4416 54.8967 28.3249C53.7954 27.2081 53.2447 25.6529 53.2447 23.6592C53.2447 21.673 53.8331 20.0615 55.0099 18.8249C56.1867 17.5807 57.6653 16.9586 59.4455 16.9586C61.2183 16.9586 62.6025 17.4945 63.5983 18.5663C64.6016 19.6306 65.1033 21.0959 65.1033 22.9621V24.5024ZM61.6973 22.2314C61.6973 20.3726 60.9392 19.4432 59.4229 19.4432C58.7968 19.4432 58.2423 19.698 57.7595 20.2077C57.2768 20.7174 56.975 21.3919 56.8543 22.2314H61.6973Z" fill="#413E4F"/>
<path d="M75.4229 14.0917C74.925 13.8968 74.4536 13.7994 74.0085 13.7994C72.7562 13.7994 72.1301 14.489 72.1301 15.868V17.2621H74.9816V19.9716H72.1301V29.6964H68.4752V19.9716H66.3819V17.2621H68.4752V15.6657C68.4752 14.2491 68.9392 13.1174 69.867 12.2704C70.7949 11.4235 72.0132 11 73.5219 11C74.2914 11 74.925 11.0787 75.4229 11.2361V14.0917Z" fill="#413E4F"/>
<path d="M76.5431 13.2485C76.5431 12.6939 76.7393 12.2442 77.1315 11.8994C77.5314 11.5471 78.0405 11.371 78.6591 11.371C79.2928 11.371 79.8058 11.5509 80.198 11.9107C80.5903 12.2629 80.7864 12.7089 80.7864 13.2485C80.7864 13.7957 80.5865 14.2529 80.1867 14.6201C79.7869 14.9799 79.2777 15.1598 78.6591 15.1598C78.0481 15.1598 77.5427 14.9761 77.1429 14.6089C76.743 14.2416 76.5431 13.7882 76.5431 13.2485ZM76.8147 29.6964V17.2621H80.4583V29.6964H76.8147Z" fill="#413E4F"/>
<path d="M95.6209 29.6964H91.9887V22.7598C91.9887 20.7511 91.2607 19.7467 89.8048 19.7467C89.1108 19.7467 88.5337 20.0166 88.0735 20.5562C87.6134 21.0884 87.3833 21.7704 87.3833 22.6024V29.6964H83.7284V17.2621H87.3833V19.2408H87.4286C88.3413 17.7193 89.6841 16.9586 91.4569 16.9586C94.2329 16.9586 95.6209 18.6675 95.6209 22.0852V29.6964Z" fill="#413E4F"/>
<path d="M109.867 24.5024H101.629C101.758 26.4286 102.927 27.3917 105.137 27.3917C106.518 27.3917 107.736 27.0544 108.792 26.3799V29.0444C107.653 29.6815 106.159 30 104.311 30C102.32 30 100.769 29.4416 99.6605 28.3249C98.5592 27.2081 98.0085 25.6529 98.0085 23.6592C98.0085 21.673 98.5969 20.0615 99.7737 18.8249C100.95 17.5807 102.429 16.9586 104.209 16.9586C105.982 16.9586 107.366 17.4945 108.362 18.5663C109.365 19.6306 109.867 21.0959 109.867 22.9621V24.5024ZM106.461 22.2314C106.461 20.3726 105.703 19.4432 104.187 19.4432C103.561 19.4432 103.006 19.698 102.523 20.2077C102.041 20.7174 101.739 21.3919 101.618 22.2314H106.461Z" fill="#413E4F"/>
<path d="M124 17.2621L119.859 23.3219L123.966 29.6964H119.745L117.878 26.2675C117.622 25.7953 117.445 25.4243 117.347 25.1544H117.301C117.165 25.5142 116.996 25.874 116.792 26.2337L114.891 29.6964H110.693L114.925 23.513L110.942 17.2621H115.174L117.03 20.8373C117.211 21.1821 117.38 21.5643 117.539 21.984H117.584C117.66 21.7292 117.833 21.3432 118.105 20.826L120.017 17.2621H124Z" fill="#413E4F"/>
</svg>
