<svg width="64" height="64" viewBox="0 0 64 64" fill="none" xmlns="http://www.w3.org/2000/svg">
<path fill-rule="evenodd" clip-rule="evenodd" d="M32 64C49.6731 64 64 49.6731 64 32C64 14.3269 49.6731 0 32 0C14.3269 0 0 14.3269 0 32C0 49.6731 14.3269 64 32 64ZM28.2771 36.8723C28.2979 38.1036 28.599 39.3922 29.1805 40.7382L37.1552 38.6014C36.7003 37.3982 36.5313 36.2729 36.6482 35.2256C36.7541 34.1371 37.0002 33.0773 37.3864 32.0462C37.8139 31.004 38.2937 29.992 38.8257 29.0102C39.3879 27.9762 39.8828 26.938 40.3103 25.8959C40.779 24.8427 41.1075 23.7608 41.2958 22.6502C41.4731 21.4984 41.3905 20.2837 41.0482 19.0061C40.5623 17.1928 39.8336 15.7095 38.862 14.5563C37.9206 13.3509 36.7982 12.459 35.4948 11.8807C34.2325 11.2913 32.825 10.9838 31.2721 10.9581C29.7604 10.9215 28.1804 11.124 26.5318 11.5657C24.1003 12.2172 22.0128 13.3287 20.2695 14.9001C18.5673 16.4605 17.2214 18.2788 16.2317 20.3551L22.4649 23.588C23.0683 22.5429 23.7309 21.6365 24.4528 20.8688C25.2159 20.0901 26.1745 19.5461 27.3284 19.2369C28.5648 18.9056 29.6423 18.9703 30.5608 19.4309C31.5205 19.8805 32.1716 20.7441 32.5139 22.0217C32.7237 22.8048 32.7013 23.6279 32.4468 24.4912C32.2224 25.3023 31.8854 26.1877 31.4358 27.1474C30.9752 28.0659 30.4843 29.0367 29.9634 30.0597C29.4836 31.0717 29.0878 32.1496 28.7758 33.2933C28.4639 34.437 28.2976 35.63 28.2771 36.8723ZM32.8368 54.1364C34.1542 54.9319 35.596 55.1198 37.1621 54.7002C38.7282 54.2805 39.8828 53.3969 40.626 52.0493C41.3994 50.6495 41.5707 49.1459 41.1401 47.5386C40.6983 45.8901 39.7982 44.6736 38.4395 43.8892C37.111 43.0525 35.6638 42.844 34.0977 43.2636C32.5316 43.6832 31.3825 44.5875 30.6503 45.9763C29.9071 47.3239 29.7563 48.822 30.1981 50.4705C30.6287 52.0778 31.5083 53.2998 32.8368 54.1364Z" fill="black"/>
</svg>
