<svg width="20" height="15" viewBox="0 0 20 15" fill="none" xmlns="http://www.w3.org/2000/svg">
<path d="M19.373 1.73327H17.8144V1.27556L17.2836 1.05948C17.1784 1.01533 14.6568 0 12.451 0C11.4187 0 10.5923 0.220725 9.9832 0.657528C9.37409 0.220725 8.54776 0 7.5154 0C5.3096 0 2.78804 1.01533 2.68279 1.05948L2.15429 1.27556V1.73327H0.627029C0.282163 1.73327 0 2.0237 0 2.38383V14.3494C0 14.7072 0.279924 15 0.627029 15H19.373C19.7178 15 20 14.7096 20 14.3494V2.38383C19.9978 2.0237 19.7178 1.73327 19.373 1.73327ZM16.9791 1.86571V11.3615C15.6869 10.9015 12.2517 9.86059 10.3997 10.9828V1.41961C10.9215 1.01533 11.6583 0.866636 12.451 0.866636C14.5225 0.864312 16.9791 1.86571 16.9791 1.86571ZM16.0318 11.9517H10.5296C11.6023 10.8968 14.2627 11.4033 16.0318 11.9517ZM7.51316 0.864313C8.3059 0.864313 9.04266 1.01301 9.56444 1.41729V10.9805C7.71022 9.85827 4.27724 10.8992 2.98511 11.3592V1.86571C2.98511 1.86571 5.43948 0.864313 7.51316 0.864313ZM9.43231 11.9517H3.92789C5.69925 11.4033 8.35965 10.8945 9.43231 11.9517ZM18.7459 13.6989H1.25406V3.03206H2.14982V12.8183H17.8166V3.03206H18.7504V13.6989H18.7459Z" fill="white"/>
</svg>
